<?xml version="1.0" encoding="UTF-8" standalone="no"?>
<svg
   xmlns:dc="http://purl.org/dc/elements/1.1/"
   xmlns:cc="http://creativecommons.org/ns#"
   xmlns:rdf="http://www.w3.org/1999/02/22-rdf-syntax-ns#"
   xmlns:svg="http://www.w3.org/2000/svg"
   xmlns="http://www.w3.org/2000/svg"
   xmlns:sodipodi="http://sodipodi.sourceforge.net/DTD/sodipodi-0.dtd"
   xmlns:inkscape="http://www.inkscape.org/namespaces/inkscape"
   version="1.2"
   x="0px"
   y="0px"
   width="1000"
   height="445.30963"
   viewBox="-14.75 -15.25 999.99997 445.30962"
   xml:space="preserve"
   id="svg2"
   inkscape:version="1.0.2-2 (e86c870879, 2021-01-15)"
   sodipodi:docname="Dish_Network_2012.svg"><metadata
   id="metadata40"><rdf:RDF><cc:Work
       rdf:about=""><dc:format>image/svg+xml</dc:format><dc:type
         rdf:resource="http://purl.org/dc/dcmitype/StillImage" /><dc:title></dc:title></cc:Work></rdf:RDF></metadata><sodipodi:namedview
   pagecolor="#ffffff"
   bordercolor="#666666"
   borderopacity="1"
   objecttolerance="10"
   gridtolerance="10"
   guidetolerance="10"
   inkscape:pageopacity="0"
   inkscape:pageshadow="2"
   inkscape:window-width="1366"
   inkscape:window-height="705"
   id="namedview38"
   showgrid="false"
   fit-margin-top="0"
   fit-margin-left="0"
   fit-margin-right="0"
   fit-margin-bottom="0"
   inkscape:zoom="0.5"
   inkscape:cx="517.83652"
   inkscape:cy="280.42433"
   inkscape:window-x="-8"
   inkscape:window-y="-8"
   inkscape:window-maximized="1"
   inkscape:current-layer="layer6"
   inkscape:document-rotation="0"
   inkscape:snap-bbox="false"
   inkscape:bbox-nodes="true"
   inkscape:snap-nodes="true"
   inkscape:snap-page="false" />
<defs
   id="defs4">
</defs>
















<g
   inkscape:groupmode="layer"
   id="layer6"
   inkscape:label="Layer 1"
   transform="translate(212.37129,94.57082)"><path
     id="path36"
     style="fill:#ed1944;fill-opacity:1;stroke:none;stroke-width:8.07847"
     d="m 170.6054,-109.82082 c 29.6641,0 53.72982,24.089961 53.72982,53.794456 0,29.704489 -24.06572,53.7621362 -53.72982,53.7621362 -29.69641,0 -53.75406,-24.0576472 -53.75406,-53.7621362 0,-29.704495 24.06573,-53.794456 53.75406,-53.794456 z m 38.62311,155.356825 c 0.46047,-0.953258 0.0242,-1.841888 -1.22793,-1.357182 -0.84016,0.306981 -14.50891,5.339862 -34.22843,5.339862 -19.72759,0 -33.40442,-5.032881 -34.24458,-5.339862 -1.25216,-0.476628 -1.69647,0.403924 -1.236,1.357182 6.30927,12.594316 15.85801,25.188631 35.48058,25.188631 19.60642,0 29.16324,-12.594315 35.45636,-25.188631 z M 173.78023,148.82716 c 28.16959,0 42.12916,-17.14248 51.6779,-35.90066 0.65435,-1.29256 0.0969,-2.36699 -1.41373,-1.72879 -4.47547,2.00346 -24.08189,10.20309 -50.26417,10.20309 -26.20651,0 -45.80485,-8.19963 -50.27224,-10.20309 -1.51875,-0.6382 -2.09232,0.43623 -1.42181,1.72879 9.54874,18.75818 23.51639,35.90066 51.69405,35.90066 z m -0.008,83.15965 c 37.25785,0 55.96755,-22.02996 68.95771,-47.25898 0.8644,-1.69648 0.16156,-2.96479 -1.65608,-2.16503 -8.31273,3.82919 -34.24458,15.38946 -67.30163,15.38946 -33.08129,0 -59.01313,-11.56835 -67.32587,-15.38946 -1.79341,-0.79976 -2.53663,0.46855 -1.66416,2.16503 13.0144,25.22902 31.69987,47.25898 68.99003,47.25898 z m 87.81283,31.05359 c 1.10675,-2.13272 0.23427,-3.62724 -1.89844,-2.65782 -12.50545,5.82458 -45.34438,21.06862 -85.9144,21.06862 -40.57001,0 -73.40086,-15.25213 -85.938627,-21.06862 -2.124634,-0.96942 -3.005187,0.5251 -1.874203,2.65782 16.77896,32.34614 40.61041,59.63518 87.81283,59.63518 47.18628,0 71.0258,-27.28904 87.81284,-59.63518 z m 474.23779,-4.10386 V 134.8272 c 0,-70.242191 -28.13728,-105.876268 -83.57167,-105.876268 -31.3121,0 -59.90174,13.369846 -82.97383,38.380752 V -103.56002 l -10.15462,-6.07499 -0.96941,0.40393 -2.61742,1.05827 c -12.99823,5.33179 -63.5694,20.430428 -86.7384,26.90127 l -5.63068,1.551066 v 24.356544 l 8.54701,-0.961338 c 5.1702,-0.565491 9.12058,-0.565491 14.61392,-0.565491 5.71146,0 9.7507,1.195612 12.09344,3.546444 3.86961,3.950363 3.7565,11.754155 3.6434,18.023038 l -0.0323,2.811303 V 257.69246 c 0,39.45519 -2.45584,42.88046 -32.55618,46.06336 l -6.91516,0.75938 v 23.888 h 143.0614 v -24.49388 l -1.2683,-0.1535 c -27.62026,-2.92439 -35.06052,-3.74031 -35.06052,-45.4494 V 112.00555 c 3.47374,-4.28158 28.88049,-34.293048 60.14411,-34.293048 27.11132,0 39.1967,18.378491 39.1967,59.586708 v 121.64541 c 0,38.31613 -6.6082,42.68657 -34.84241,44.8193 l -0.54932,0.0164 v 24.63122 h 139.6361 V 304.984 l -6.38202,-1.12302 c -27.15171,-4.80683 -30.67391,-5.44501 -30.67391,-44.92444 z M -89.844075,61.652528 c 34.955497,0 55.846367,29.349036 55.846367,57.744812 v 137.14797 c -4.265411,17.69183 -24.081861,30.5285 -47.226652,30.5285 -35.73103,0 -77.44818,-31.0132 -77.44818,-118.29286 0,-79.071939 37.07205,-107.128422 68.828465,-107.128422 z m 111.668516,-170.657418 -1.987292,0.69475 v -0.007 c -11.0836448,3.95846 -54.715394,18.281547 -89.945535,26.949733 l -5.864963,1.46221 v 24.461564 l 8.482365,-0.896708 c 19.751841,-2.027691 27.248643,0.565493 30.059946,3.085971 3.231372,2.924403 3.417178,8.870146 3.417178,18.289629 v 82.33564 C -52.101522,34.542016 -69.599461,28.943647 -91.726347,28.943647 c -35.084753,0 -69.983683,17.643351 -95.665093,48.381882 -25.25327,30.221511 -39.72985,70.783451 -39.72985,111.224201 0,141.91427 107.70198,146.0262 119.98933,146.0262 30.019527,0 54.561893,-9.37102 73.126176,-27.57178 v 21.88454 l 8.853996,6.60012 99.696247,-35.27864 v -23.64566 l -8.288496,0.63822 c -19.380219,1.50258 -26.796245,-1.30064 -29.631783,-3.89384 -2.867852,-2.65779 -3.401031,-7.35137 -3.401031,-15.61564 v -362.71554 l -10.639327,-4.25735 z m 328.962879,317.87923 35.78757,20.34155 c 19.46908,10.97055 28.18573,23.39522 28.18573,40.22264 0,22.2804 -16.4235,36.13494 -42.91277,36.13494 -48.81811,0 -63.47243,-40.57001 -71.41356,-80.25139 l -1.236,-6.22041 h -23.888 v 111.75739 h 18.54006 l 2.30236,-2.58512 c 4.28158,-4.83092 4.28158,-4.83092 8.43391,-4.83092 7.17367,-0.25851 16.4235,1.93076 27.08707,4.44316 13.40216,3.11828 28.58967,6.68089 44.46384,6.68089 40.3842,0 97.22422,-27.10324 97.22422,-87.35237 0,-42.00798 -25.17247,-60.81463 -55.53132,-79.43547 l -66.71189,-39.56021 c -15.3006,-9.13674 -22.74894,-21.31097 -22.74894,-37.241691 0,-13.014395 10.41313,-32.402694 39.17244,-32.402694 21.36753,0 47.60634,7.908811 60.95197,69.838265 l 1.31678,6.09116 h 23.4033 l -2.92441,-99.987071 h -18.7097 l -2.26196,3.869582 c -1.00174,1.809573 -2.68207,2.916322 -4.41893,2.916322 -0.96134,-0.05655 -6.21235,-1.753027 -9.35487,-2.746676 -11.94802,-3.829187 -29.85797,-9.597207 -47.99411,-9.597207 -53.8106,-0.0082 -92.86994,35.165525 -92.86994,83.66859 0,49.16549 36.01376,73.55435 76.10715,96.24674 z"
     sodipodi:nodetypes="cccccccccccccccccccccccccccccccccccccccccccccccccccccccccccccccccccccccccccccccccccccccccccccccccccccccccccccccccccccccccccccccc" /></g></svg>
